# xmcd CD database file
# Copyright (C) 1993-1998 Ti Kan
# 
# Track frame offsets:
#     150
#     11455
#     23642
#     36600
#     51460
#     60877
#     75365
#     91592
#     103290
#     112902
# 
# Disc length: 1634 seconds
# 
# Revision: 1
# Processed by: cddbd v1.4b41PL1 Copyright (c) Steve Scherf et al.
# Submitted via: DiscPlay 4.0.4
# 
DISCID=6d06600a
DTITLE=Various Artist - Corny Country
DYEAR=1900
DGENRE=
TTITLE0=Auctioneer
TTITLE1=The Battle of Kookamonga
TTITLE2=Ode To the Little Brown Shack Out Back
TTITLE3=The Credit Card Song
TTITLE4=Chug-A-Lug
TTITLE5=Gitarzan
TTITLE6=Don't Go Near the Eskimos
TTITLE7=Hod Rod Lincoln
TTITLE8=When the Ship Hits the Sand
TTITLE9=Is Zat You, Myrtle?
EXTD=
EXTT0=
EXTT1=
EXTT2=
EXTT3=
EXTT4=
EXTT5=
EXTT6=
EXTT7=
EXTT8=
EXTT9=
PLAYORDER=
